<?xml version="1.0" encoding="utf-8"?>
<!-- Generator: Adobe Illustrator 25.4.1, SVG Export Plug-In . SVG Version: 6.00 Build 0)  -->
<svg version="1.1" id="Layer_1" xmlns="http://www.w3.org/2000/svg" xmlns:xlink="http://www.w3.org/1999/xlink" x="0px" y="0px"
	 viewBox="0 0 217.53 149.11" style="enable-background:new 0 0 217.53 149.11;" xml:space="preserve">
<style type="text/css">
	.st0{fill:#00AEEF;stroke:#000000;stroke-miterlimit:10;}
	.st1{fill:#39B54A;stroke:#000000;stroke-miterlimit:10;}
	.st2{fill:none;stroke:#000000;stroke-miterlimit:10;}
</style>
<path class="st0" d="M126.3,38.13H91.89c-7.15,0-12.94-5.79-12.94-12.94v-7.13c0-7.15,5.79-12.94,12.94-12.94h34.41
	c7.15,0,12.94,5.79,12.94,12.94v7.13C139.23,32.34,133.44,38.13,126.3,38.13z"/>
<path class="st0" d="M75.26,91.06H40.85c-7.15,0-12.94-5.79-12.94-12.94v-7.13c0-7.15,5.79-12.94,12.94-12.94h34.41
	c7.15,0,12.94,5.79,12.94,12.94v7.13C88.2,85.27,82.4,91.06,75.26,91.06z"/>
<path class="st0" d="M177.01,91.06H142.6c-7.15,0-12.94-5.79-12.94-12.94v-7.13c0-7.15,5.79-12.94,12.94-12.94h34.41
	c7.15,0,12.94,5.79,12.94,12.94v7.13C189.95,85.27,184.15,91.06,177.01,91.06z"/>
<path class="st1" d="M146.87,143.98h-20.38c-7.15,0-12.94-5.79-12.94-12.94v-7.13c0-7.15,5.79-12.94,12.94-12.94h20.38
	c7.15,0,12.94,5.79,12.94,12.94v7.13C159.8,138.19,154.01,143.98,146.87,143.98z"/>
<path class="st1" d="M199.96,143.98h-20.38c-7.15,0-12.94-5.79-12.94-12.94v-7.13c0-7.15,5.79-12.94,12.94-12.94h20.38
	c7.15,0,12.94,5.79,12.94,12.94v7.13C212.9,138.19,207.11,143.98,199.96,143.98z"/>
<path class="st1" d="M38.27,143.98H17.89c-7.15,0-12.94-5.79-12.94-12.94v-7.13c0-7.15,5.79-12.94,12.94-12.94h20.38
	c7.15,0,12.94,5.79,12.94,12.94v7.13C51.21,138.19,45.42,143.98,38.27,143.98z"/>
<path class="st1" d="M91.37,143.98H70.99c-7.15,0-12.94-5.79-12.94-12.94v-7.13c0-7.15,5.79-12.94,12.94-12.94h20.38
	c7.15,0,12.94,5.79,12.94,12.94v7.13C104.31,138.19,98.51,143.98,91.37,143.98z"/>
<line class="st2" x1="109.09" y1="38.13" x2="109.09" y2="48.86"/>
<line class="st2" x1="58.05" y1="48.86" x2="159.8" y2="48.86"/>
<line class="st2" x1="58.05" y1="58.05" x2="58.05" y2="48.86"/>
<line class="st2" x1="159.8" y1="48.86" x2="159.8" y2="58.05"/>
<line class="st2" x1="58.05" y1="91.06" x2="28.08" y2="110.97"/>
<line class="st2" x1="81.18" y1="110.97" x2="58.05" y2="91.06"/>
<line class="st2" x1="136.68" y1="110.97" x2="159.8" y2="91.06"/>
<line class="st2" x1="189.95" y1="110.97" x2="159.8" y2="91.06"/>
</svg>
